<svg width="70" height="70" viewBox="0 0 70 70" fill="none" xmlns="http://www.w3.org/2000/svg">
<path opacity="0.4" d="M58.3118 55.2803H41.7035C40.0831 55.2803 38.7651 56.6191 38.7651 58.2652C38.7651 59.9144 40.0831 61.25 41.7035 61.25H58.3118C59.9322 61.25 61.2501 59.9144 61.2501 58.2652C61.2501 56.6191 59.9322 55.2803 58.3118 55.2803" fill="white"/>
<path d="M30.068 20.1363L45.8059 32.8532C46.1855 33.1574 46.2504 33.7154 45.9541 34.1042L27.2963 58.4156C26.1235 59.9175 24.395 60.7671 22.5432 60.7985L12.3578 60.9239C11.8146 60.9302 11.3393 60.5539 11.2158 60.0147L8.90095 49.9502C8.49971 48.1004 8.90095 46.1878 10.0738 44.7142L28.8241 20.2868C29.1266 19.8949 29.6853 19.8259 30.068 20.1363" fill="white"/>
<path opacity="0.4" d="M52.8518 25.2742L49.8177 29.0617C49.5122 29.4473 48.9628 29.51 48.5832 29.2028C44.8948 26.2179 35.4502 18.5583 32.8298 16.4357C32.4471 16.1221 32.3946 15.5641 32.7033 15.1753L35.6292 11.5414C38.2836 8.1239 42.9133 7.81036 46.6479 10.7889L50.9381 14.2065C52.6974 15.586 53.8703 17.4045 54.2715 19.3171C54.7345 21.4209 54.2407 23.4871 52.8518 25.2742" fill="white"/>
</svg>
