<svg width="33" height="33" viewBox="0 0 33 33" fill="none" xmlns="http://www.w3.org/2000/svg">
<path fill-rule="evenodd" clip-rule="evenodd" d="M27.5074 7.38225C28.0182 7.38225 28.4434 7.80634 28.4434 8.34596V8.84489C28.4434 9.37139 28.0182 9.8086 27.5074 9.8086H5.74709C5.23503 9.8086 4.80981 9.37139 4.80981 8.84489V8.34596C4.80981 7.80634 5.23503 7.38225 5.74709 7.38225H9.57535C10.353 7.38225 11.0298 6.82949 11.2047 6.04959L11.4052 5.15415C11.7168 3.93441 12.7422 3.12431 13.9157 3.12431H19.3375C20.4983 3.12431 21.5351 3.93441 21.8352 5.08982L22.0497 6.04828C22.2234 6.82949 22.9002 7.38225 23.6791 7.38225H27.5074ZM25.5625 25.6209C25.9622 21.896 26.6619 13.0466 26.6619 12.9574C26.6875 12.6869 26.5993 12.4309 26.4244 12.2247C26.2367 12.0317 25.9992 11.9175 25.7374 11.9175H7.52573C7.26268 11.9175 7.0124 12.0317 6.83874 12.2247C6.66252 12.4309 6.57569 12.6869 6.58846 12.9574C6.59081 12.9738 6.61592 13.2855 6.65789 13.8066C6.84438 16.1217 7.36377 22.5697 7.6994 25.6209C7.93691 27.8687 9.41177 29.2814 11.5481 29.3326C13.1966 29.3707 14.8949 29.3838 16.6316 29.3838C18.2673 29.3838 19.9286 29.3707 21.6282 29.3326C23.8386 29.2945 25.3122 27.9067 25.5625 25.6209Z" fill="white"/>
</svg>
