<svg width="70" height="70" viewBox="0 0 70 70" fill="none" xmlns="http://www.w3.org/2000/svg">
<path opacity="0.4" d="M46.8869 5.83331H56.7627C60.8526 5.83331 64.1667 9.17538 64.1667 13.2999V23.259C64.1667 27.3835 60.8526 30.7256 56.7627 30.7256H46.8869C42.797 30.7256 39.4829 27.3835 39.4829 23.259V13.2999C39.4829 9.17538 42.797 5.83331 46.8869 5.83331" fill="white"/>
<path fill-rule="evenodd" clip-rule="evenodd" d="M13.2375 5.83331H23.1133C27.2032 5.83331 30.5173 9.17538 30.5173 13.2999V23.259C30.5173 27.3835 27.2032 30.7256 23.1133 30.7256H13.2375C9.14757 30.7256 5.8335 27.3835 5.8335 23.259V13.2999C5.8335 9.17538 9.14757 5.83331 13.2375 5.83331ZM13.2375 39.2744H23.1133C27.2032 39.2744 30.5173 42.6165 30.5173 46.741V56.7001C30.5173 60.8218 27.2032 64.1666 23.1133 64.1666H13.2375C9.14757 64.1666 5.8335 60.8218 5.8335 56.7001V46.741C5.8335 42.6165 9.14757 39.2744 13.2375 39.2744ZM56.7628 39.2744H46.8871C42.7971 39.2744 39.483 42.6165 39.483 46.741V56.7001C39.483 60.8218 42.7971 64.1666 46.8871 64.1666H56.7628C60.8528 64.1666 64.1668 60.8218 64.1668 56.7001V46.741C64.1668 42.6165 60.8528 39.2744 56.7628 39.2744Z" fill="white"/>
</svg>
